<svg width="1427" height="4207" viewBox="0 0 1427 4207" fill="none" xmlns="http://www.w3.org/2000/svg">
<path fill-rule="evenodd" clip-rule="evenodd" d="M-15 1962.5L134.266 1817.06C243.89 1710.25 404.904 1675.46 548.848 1727.48C649.395 1763.82 760.313 1758.34 856.789 1712.27L1035.14 1627.1C1158.17 1568.35 1300.05 1563.22 1427 1612.95L1425 2499.5H-15" fill="url(#paint0_linear)"/>
<path fill-rule="evenodd" clip-rule="evenodd" d="M-15 3595.92L-15 3406.26C-15 3351.03 29.7715 3306.26 85 3306.26H1337C1386.71 3306.26 1427 3265.97 1427 3216.26V3057V3757.59V4207H-15L-15 3595.92Z" fill="url(#paint1_linear)"/>
<path fill-rule="evenodd" clip-rule="evenodd" d="M-15 1348.92L-15 1159.26C-15 1104.03 29.7715 1059.26 85 1059.26H1337C1386.71 1059.26 1427 1018.97 1427 969.261V810V1510.59V1960H-15L-15 1348.92Z" fill="url(#paint2_linear)"/>
<path fill-rule="evenodd" clip-rule="evenodd" d="M-15 0V674.555C-15 674.555 345 810 705 810C1065 810 1425 674.555 1425 674.555V0L-15 0Z" fill="#D8D8D8"/>
<mask id="mask0" mask-type="alpha" maskUnits="userSpaceOnUse" x="-15" y="0" width="1440" height="810">
<path fill-rule="evenodd" clip-rule="evenodd" d="M-15 0V674.555C-15 674.555 345 810 705 810C1065 810 1425 674.555 1425 674.555V0L-15 0Z" fill="white"/>
</mask>
<g mask="url(#mask0)">
<rect x="-15" width="1440" height="810" fill="url(#paint3_linear)"/>
</g>
<defs>
<linearGradient id="paint0_linear" x1="-8.49185" y1="1543.71" x2="-8.49185" y2="2499.5" gradientUnits="userSpaceOnUse">
<stop stop-color="#ECE9FF"/>
<stop offset="1" stop-color="white" stop-opacity="0.01"/>
</linearGradient>
<linearGradient id="paint1_linear" x1="521.555" y1="4191.56" x2="521.555" y2="3335.75" gradientUnits="userSpaceOnUse">
<stop stop-color="#BCBCBC" stop-opacity="0.01"/>
<stop offset="1" stop-color="white"/>
</linearGradient>
<linearGradient id="paint2_linear" x1="521.555" y1="1944.56" x2="521.555" y2="1088.75" gradientUnits="userSpaceOnUse">
<stop stop-color="#DDE2FF" stop-opacity="0.01"/>
<stop offset="1" stop-color="white"/>
</linearGradient>
<linearGradient id="paint3_linear" x1="1425" y1="810" x2="1425" y2="0" gradientUnits="userSpaceOnUse">
<stop stop-color="#6F86D6"/>
<stop offset="1" stop-color="#48C6EF"/>
</linearGradient>
</defs>
</svg>
