<svg width="556" height="329" viewBox="0 0 556 329" fill="none" xmlns="http://www.w3.org/2000/svg">
<path d="M540.5 295.5C540.5 305.993 531.993 314.5 521.5 314.5C511.007 314.5 502.5 305.993 502.5 295.5C502.5 285.007 511.007 276.5 521.5 276.5C531.993 276.5 540.5 285.007 540.5 295.5Z" stroke="white"/>
<path opacity="0.522926" d="M592.5 295.5C592.5 334.712 560.712 366.5 521.5 366.5C482.288 366.5 450.5 334.712 450.5 295.5C450.5 256.288 482.288 224.5 521.5 224.5C560.712 224.5 592.5 256.288 592.5 295.5Z" stroke="white"/>
<path opacity="0.604864" d="M661.5 295.5C661.5 372.82 598.82 435.5 521.5 435.5C444.18 435.5 381.5 372.82 381.5 295.5C381.5 218.18 444.18 155.5 521.5 155.5C598.82 155.5 661.5 218.18 661.5 295.5Z" stroke="white"/>
<path opacity="0.44329" d="M733.5 295.5C733.5 412.584 638.584 507.5 521.5 507.5C404.416 507.5 309.5 412.584 309.5 295.5C309.5 178.416 404.416 83.5 521.5 83.5C638.584 83.5 733.5 178.416 733.5 295.5Z" stroke="white"/>
<path opacity="0.322893" d="M815.5 295.5C815.5 457.872 683.872 589.5 521.5 589.5C359.128 589.5 227.5 457.872 227.5 295.5C227.5 133.128 359.128 1.5 521.5 1.5C683.872 1.5 815.5 133.128 815.5 295.5Z" stroke="white"/>
<path opacity="0.228702" d="M936.5 295.5C936.5 524.698 750.698 710.5 521.5 710.5C292.302 710.5 106.5 524.698 106.5 295.5C106.5 66.3018 292.302 -119.5 521.5 -119.5C750.698 -119.5 936.5 66.3018 936.5 295.5Z" stroke="white"/>
<path opacity="0.135184" d="M1042.5 295.5C1042.5 583.24 809.24 816.5 521.5 816.5C233.76 816.5 0.5 583.24 0.5 295.5C0.5 7.75963 233.76 -225.5 521.5 -225.5C809.24 -225.5 1042.5 7.75963 1042.5 295.5Z" stroke="white"/>
</svg>
