<svg width="608" height="372" viewBox="0 0 608 372" fill="none" xmlns="http://www.w3.org/2000/svg">
<rect x="539" y="20" width="11" height="11" rx="5.5" fill="#D8D8D8"/>
<mask id="mask0" mask-type="alpha" maskUnits="userSpaceOnUse" x="539" y="20" width="11" height="11">
<rect x="539" y="20" width="11" height="11" rx="5.5" fill="white"/>
</mask>
<g mask="url(#mask0)">
<rect x="538.175" y="18.625" width="13.2" height="13.2" fill="url(#paint0_linear)"/>
</g>
<rect y="290" width="20" height="20" rx="10" fill="#D8D8D8"/>
<mask id="mask1" mask-type="alpha" maskUnits="userSpaceOnUse" x="0" y="290" width="20" height="20">
<rect y="290" width="20" height="20" rx="10" fill="white"/>
</mask>
<g mask="url(#mask1)">
<rect x="-1.5" y="287.5" width="24" height="24" fill="url(#paint1_linear)"/>
</g>
<rect y="290" width="20" height="20" rx="10" fill="#D8D8D8"/>
<mask id="mask2" mask-type="alpha" maskUnits="userSpaceOnUse" x="0" y="290" width="20" height="20">
<rect y="290" width="20" height="20" rx="10" fill="white"/>
</mask>
<g mask="url(#mask2)">
<rect x="-1.5" y="287.5" width="24" height="24" fill="url(#paint2_linear)"/>
</g>
<rect x="379" y="352" width="20" height="20" rx="10" fill="#D8D8D8"/>
<mask id="mask3" mask-type="alpha" maskUnits="userSpaceOnUse" x="379" y="352" width="20" height="20">
<rect x="379" y="352" width="20" height="20" rx="10" fill="white"/>
</mask>
<g mask="url(#mask3)">
<rect x="377.5" y="349.5" width="24" height="24" fill="url(#paint3_linear)"/>
</g>
<g filter="url(#filter0_d)">
<rect x="41" width="482" height="334" rx="19" fill="white"/>
<rect x="41.5" y="0.5" width="481" height="333" rx="18.5" stroke="#EDEDED"/>
</g>
<rect opacity="0.208845" x="70" y="170" width="273" height="10" rx="5" fill="#B5B5B5"/>
<rect opacity="0.208845" x="70" y="194" width="273" height="10" rx="5" fill="#B5B5B5"/>
<rect opacity="0.208845" x="70" y="218" width="273" height="10" rx="5" fill="#B5B5B5"/>
<rect opacity="0.208845" x="366" y="170" width="137" height="10" rx="5" fill="#B5B5B5"/>
<rect opacity="0.208845" x="366" y="194" width="137" height="10" rx="5" fill="#B5B5B5"/>
<rect opacity="0.208845" x="366" y="218" width="137" height="10" rx="5" fill="#B5B5B5"/>
<rect x="224" y="191" width="74" height="74" rx="37" fill="#D8D8D8"/>
<mask id="mask4" mask-type="alpha" maskUnits="userSpaceOnUse" x="224" y="191" width="74" height="74">
<rect x="224" y="191" width="74" height="74" rx="37" fill="white"/>
</mask>
<g mask="url(#mask4)">
<rect x="218.45" y="181.75" width="88.8" height="88.8" fill="url(#paint4_linear)"/>
<mask id="mask5" mask-type="alpha" maskUnits="userSpaceOnUse" x="249" y="218" width="25" height="25">
<path fill-rule="evenodd" clip-rule="evenodd" d="M271.071 218.767C267.668 219.124 262.613 225.17 260.473 227.824L265.098 232.45C267.702 230.204 273.714 224.831 273.895 221.418C273.984 219.779 272.707 218.594 271.071 218.767ZM258.053 230.954C260.093 231.526 261.554 233.136 262.112 234.925C262.647 234.499 263.302 233.968 264.024 233.363L259.593 228.933C258.995 229.697 258.472 230.389 258.053 230.954ZM251.18 237.753C251.25 236.595 251.323 235.37 252.359 234.075C254.096 231.904 257.541 231.375 259.594 233.429C261.725 235.56 261.182 238.749 259.425 240.6C257.557 242.57 253.527 243.46 250.327 242.089C249.877 241.897 249.757 241.314 250.093 240.959C251.048 239.952 251.112 238.884 251.18 237.753Z" fill="white"/>
</mask>
<g mask="url(#mask5)">
<rect x="249.9" y="218.75" width="24" height="24" fill="white"/>
</g>
</g>
<g filter="url(#filter1_d)">
<rect x="61" y="47" width="163" height="100" rx="10" fill="white"/>
<rect x="61.5" y="47.5" width="162" height="99" rx="9.5" stroke="#EEEEEE"/>
</g>
<rect opacity="0.208845" x="77" y="72" width="80" height="10" rx="5" fill="#B5B5B5"/>
<rect opacity="0.208845" x="77" y="96" width="80" height="10" rx="5" fill="#B5B5B5"/>
<rect opacity="0.208845" x="77" y="120" width="80" height="10" rx="5" fill="#B5B5B5"/>
<mask id="mask6" mask-type="alpha" maskUnits="userSpaceOnUse" x="166" y="72" width="31" height="31">
<path fill-rule="evenodd" clip-rule="evenodd" d="M196.092 72H166.908C166.407 72 166 72.4066 166 72.9082V99.1735V102.092C166 102.593 166.407 103 166.908 103H196.092C196.593 103 197 102.593 197 102.092V99.1735V72.9082C197 72.4066 196.593 72 196.092 72ZM195.184 96.665L189.494 89.837C189.338 89.65 189.113 89.5333 188.871 89.5132C188.628 89.4931 188.388 89.5713 188.203 89.7301L183.742 93.571L175.878 84.0049C175.688 83.7738 175.396 83.6511 175.099 83.6768C174.801 83.7026 174.534 83.8735 174.387 84.134L167.816 95.7286V73.8164H195.184V96.665ZM183.51 81.6633C183.51 79.5533 185.227 77.8367 187.337 77.8367C189.447 77.8367 191.163 79.5534 191.163 81.6633C191.163 83.7733 189.447 85.4899 187.337 85.4899C185.227 85.4899 183.51 83.7732 183.51 81.6633Z" fill="white"/>
</mask>
<g mask="url(#mask6)">
<rect x="166" y="72" width="31" height="31" fill="url(#paint5_linear)"/>
</g>
<g filter="url(#filter2_d)">
<rect x="241" y="47" width="163" height="100" rx="10" fill="white"/>
<rect x="241.5" y="47.5" width="162" height="99" rx="9.5" stroke="#EEEEEE"/>
</g>
<rect opacity="0.208845" x="257" y="72" width="80" height="10" rx="5" fill="#B5B5B5"/>
<rect opacity="0.208845" x="257" y="96" width="80" height="10" rx="5" fill="#B5B5B5"/>
<rect opacity="0.208845" x="257" y="120" width="80" height="10" rx="5" fill="#B5B5B5"/>
<mask id="mask7" mask-type="alpha" maskUnits="userSpaceOnUse" x="346" y="72" width="31" height="31">
<path fill-rule="evenodd" clip-rule="evenodd" d="M376.092 72H346.908C346.407 72 346 72.4066 346 72.9082V99.1735V102.092C346 102.593 346.407 103 346.908 103H376.092C376.593 103 377 102.593 377 102.092V99.1735V72.9082C377 72.4066 376.593 72 376.092 72ZM375.184 96.665L369.494 89.837C369.338 89.65 369.113 89.5333 368.871 89.5132C368.628 89.4931 368.388 89.5713 368.203 89.7301L363.742 93.571L355.878 84.0049C355.688 83.7738 355.396 83.6511 355.099 83.6768C354.801 83.7026 354.534 83.8735 354.387 84.134L347.816 95.7286V73.8164H375.184V96.665ZM363.51 81.6633C363.51 79.5533 365.227 77.8367 367.337 77.8367C369.447 77.8367 371.163 79.5534 371.163 81.6633C371.163 83.7733 369.447 85.4899 367.337 85.4899C365.227 85.4899 363.51 83.7732 363.51 81.6633Z" fill="white"/>
</mask>
<g mask="url(#mask7)">
<rect x="346" y="72" width="31" height="31" fill="url(#paint6_linear)"/>
</g>
<g filter="url(#filter3_d)">
<rect x="421" y="47" width="163" height="100" rx="10" fill="white"/>
<rect x="421.5" y="47.5" width="162" height="99" rx="9.5" stroke="#EEEEEE"/>
</g>
<rect opacity="0.208845" x="437" y="72" width="80" height="10" rx="5" fill="#B5B5B5"/>
<rect opacity="0.208845" x="437" y="96" width="80" height="10" rx="5" fill="#B5B5B5"/>
<rect opacity="0.208845" x="437" y="120" width="80" height="10" rx="5" fill="#B5B5B5"/>
<mask id="mask8" mask-type="alpha" maskUnits="userSpaceOnUse" x="526" y="72" width="31" height="31">
<path fill-rule="evenodd" clip-rule="evenodd" d="M556.092 72H526.908C526.407 72 526 72.4066 526 72.9082V99.1735V102.092C526 102.593 526.407 103 526.908 103H556.092C556.593 103 557 102.593 557 102.092V99.1735V72.9082C557 72.4066 556.593 72 556.092 72ZM555.184 96.665L549.494 89.837C549.338 89.65 549.113 89.5333 548.871 89.5132C548.628 89.4931 548.388 89.5713 548.203 89.7301L543.742 93.571L535.878 84.0049C535.688 83.7738 535.396 83.6511 535.099 83.6768C534.801 83.7026 534.534 83.8735 534.387 84.134L527.816 95.7286V73.8164H555.184V96.665ZM543.51 81.6633C543.51 79.5533 545.227 77.8367 547.337 77.8367C549.447 77.8367 551.163 79.5534 551.163 81.6633C551.163 83.7733 549.447 85.4899 547.337 85.4899C545.227 85.4899 543.51 83.7732 543.51 81.6633Z" fill="white"/>
</mask>
<g mask="url(#mask8)">
<rect x="526" y="72" width="31" height="31" fill="url(#paint7_linear)"/>
</g>
<defs>
<filter id="filter0_d" x="17" y="-12" width="530" height="382" filterUnits="userSpaceOnUse" color-interpolation-filters="sRGB">
<feFlood flood-opacity="0" result="BackgroundImageFix"/>
<feColorMatrix in="SourceAlpha" type="matrix" values="0 0 0 0 0 0 0 0 0 0 0 0 0 0 0 0 0 0 127 0" result="hardAlpha"/>
<feOffset dy="12"/>
<feGaussianBlur stdDeviation="12"/>
<feColorMatrix type="matrix" values="0 0 0 0 0.867527 0 0 0 0 0.867527 0 0 0 0 0.867527 0 0 0 0.01 0"/>
<feBlend mode="normal" in2="BackgroundImageFix" result="effect1_dropShadow"/>
<feBlend mode="normal" in="SourceGraphic" in2="effect1_dropShadow" result="shape"/>
</filter>
<filter id="filter1_d" x="37" y="35" width="211" height="148" filterUnits="userSpaceOnUse" color-interpolation-filters="sRGB">
<feFlood flood-opacity="0" result="BackgroundImageFix"/>
<feColorMatrix in="SourceAlpha" type="matrix" values="0 0 0 0 0 0 0 0 0 0 0 0 0 0 0 0 0 0 127 0" result="hardAlpha"/>
<feOffset dy="12"/>
<feGaussianBlur stdDeviation="12"/>
<feColorMatrix type="matrix" values="0 0 0 0 0.867527 0 0 0 0 0.867527 0 0 0 0 0.867527 0 0 0 0.01 0"/>
<feBlend mode="normal" in2="BackgroundImageFix" result="effect1_dropShadow"/>
<feBlend mode="normal" in="SourceGraphic" in2="effect1_dropShadow" result="shape"/>
</filter>
<filter id="filter2_d" x="217" y="35" width="211" height="148" filterUnits="userSpaceOnUse" color-interpolation-filters="sRGB">
<feFlood flood-opacity="0" result="BackgroundImageFix"/>
<feColorMatrix in="SourceAlpha" type="matrix" values="0 0 0 0 0 0 0 0 0 0 0 0 0 0 0 0 0 0 127 0" result="hardAlpha"/>
<feOffset dy="12"/>
<feGaussianBlur stdDeviation="12"/>
<feColorMatrix type="matrix" values="0 0 0 0 0.867527 0 0 0 0 0.867527 0 0 0 0 0.867527 0 0 0 0.01 0"/>
<feBlend mode="normal" in2="BackgroundImageFix" result="effect1_dropShadow"/>
<feBlend mode="normal" in="SourceGraphic" in2="effect1_dropShadow" result="shape"/>
</filter>
<filter id="filter3_d" x="397" y="35" width="211" height="148" filterUnits="userSpaceOnUse" color-interpolation-filters="sRGB">
<feFlood flood-opacity="0" result="BackgroundImageFix"/>
<feColorMatrix in="SourceAlpha" type="matrix" values="0 0 0 0 0 0 0 0 0 0 0 0 0 0 0 0 0 0 127 0" result="hardAlpha"/>
<feOffset dy="12"/>
<feGaussianBlur stdDeviation="12"/>
<feColorMatrix type="matrix" values="0 0 0 0 0.867527 0 0 0 0 0.867527 0 0 0 0 0.867527 0 0 0 0.01 0"/>
<feBlend mode="normal" in2="BackgroundImageFix" result="effect1_dropShadow"/>
<feBlend mode="normal" in="SourceGraphic" in2="effect1_dropShadow" result="shape"/>
</filter>
<linearGradient id="paint0_linear" x1="551.375" y1="31.825" x2="551.375" y2="18.625" gradientUnits="userSpaceOnUse">
<stop stop-color="#6F86D6"/>
<stop offset="1" stop-color="#48C6EF"/>
</linearGradient>
<linearGradient id="paint1_linear" x1="22.5" y1="311.5" x2="22.5" y2="287.5" gradientUnits="userSpaceOnUse">
<stop stop-color="#6F86D6"/>
<stop offset="1" stop-color="#48C6EF"/>
</linearGradient>
<linearGradient id="paint2_linear" x1="22.5" y1="311.5" x2="22.5" y2="287.5" gradientUnits="userSpaceOnUse">
<stop stop-color="#6F86D6"/>
<stop offset="1" stop-color="#48C6EF"/>
</linearGradient>
<linearGradient id="paint3_linear" x1="401.5" y1="373.5" x2="401.5" y2="349.5" gradientUnits="userSpaceOnUse">
<stop stop-color="#6F86D6"/>
<stop offset="1" stop-color="#48C6EF"/>
</linearGradient>
<linearGradient id="paint4_linear" x1="307.25" y1="270.55" x2="307.25" y2="181.75" gradientUnits="userSpaceOnUse">
<stop stop-color="#6F86D6"/>
<stop offset="1" stop-color="#48C6EF"/>
</linearGradient>
<linearGradient id="paint5_linear" x1="197" y1="103" x2="197" y2="72" gradientUnits="userSpaceOnUse">
<stop stop-color="#6F86D6"/>
<stop offset="1" stop-color="#48C6EF"/>
</linearGradient>
<linearGradient id="paint6_linear" x1="377" y1="103" x2="377" y2="72" gradientUnits="userSpaceOnUse">
<stop stop-color="#6F86D6"/>
<stop offset="1" stop-color="#48C6EF"/>
</linearGradient>
<linearGradient id="paint7_linear" x1="557" y1="103" x2="557" y2="72" gradientUnits="userSpaceOnUse">
<stop stop-color="#6F86D6"/>
<stop offset="1" stop-color="#48C6EF"/>
</linearGradient>
</defs>
</svg>
