<svg width="500" height="324" viewBox="0 0 500 324" fill="none" xmlns="http://www.w3.org/2000/svg">
<g filter="url(#filter0_d)">
<rect x="24" y="29" width="163" height="100" rx="10" fill="white"/>
<rect x="24.5" y="29.5" width="162" height="99" rx="9.5" stroke="#EEEEEE"/>
</g>
<rect opacity="0.208845" x="86" y="52" width="80" height="10" rx="5" fill="#B5B5B5"/>
<rect opacity="0.208845" x="86" y="76" width="80" height="10" rx="5" fill="#B5B5B5"/>
<rect opacity="0.208845" x="86" y="100" width="80" height="10" rx="5" fill="#B5B5B5"/>
<g filter="url(#filter1_d)">
<rect x="24" y="197" width="163" height="100" rx="10" fill="white"/>
<rect x="24.5" y="197.5" width="162" height="99" rx="9.5" stroke="#EEEEEE"/>
</g>
<rect opacity="0.208845" x="40" y="222" width="80" height="10" rx="5" fill="#B5B5B5"/>
<rect opacity="0.208845" x="40" y="246" width="80" height="10" rx="5" fill="#B5B5B5"/>
<rect opacity="0.208845" x="40" y="270" width="80" height="10" rx="5" fill="#B5B5B5"/>
<mask id="mask0" mask-type="alpha" maskUnits="userSpaceOnUse" x="129" y="222" width="31" height="31">
<path fill-rule="evenodd" clip-rule="evenodd" d="M159.092 222H129.908C129.407 222 129 222.407 129 222.908V249.173V252.092C129 252.593 129.407 253 129.908 253H159.092C159.593 253 160 252.593 160 252.092V249.173V222.908C160 222.407 159.593 222 159.092 222ZM158.184 246.665L152.494 239.837C152.338 239.65 152.113 239.533 151.871 239.513C151.628 239.493 151.388 239.571 151.203 239.73L146.742 243.571L138.878 234.005C138.688 233.774 138.396 233.651 138.099 233.677C137.801 233.703 137.534 233.874 137.387 234.134L130.816 245.729V223.816H158.184V246.665ZM146.51 231.663C146.51 229.553 148.227 227.837 150.337 227.837C152.447 227.837 154.163 229.553 154.163 231.663C154.163 233.773 152.447 235.49 150.337 235.49C148.227 235.49 146.51 233.773 146.51 231.663Z" fill="white"/>
</mask>
<g mask="url(#mask0)">
<rect x="129" y="222" width="31" height="31" fill="url(#paint0_linear)"/>
</g>
<g filter="url(#filter2_d)">
<rect x="214" width="265" height="313" rx="10" fill="white"/>
<rect x="214.5" y="0.5" width="264" height="312" rx="9.5" stroke="#F2F2F2"/>
</g>
<g opacity="0.753743">
<mask id="mask1" mask-type="alpha" maskUnits="userSpaceOnUse" x="234" y="19" width="227" height="227">
<path fill-rule="evenodd" clip-rule="evenodd" d="M454.35 19H240.65C236.978 19 234 21.9776 234 25.6504V217.98V239.35C234 243.022 236.978 246 240.65 246H454.35C458.023 246 461 243.022 461 239.35V217.98V25.6504C461 21.9776 458.023 19 454.35 19ZM447.699 199.611L406.034 149.613C404.893 148.243 403.25 147.389 401.474 147.242C399.697 147.095 397.936 147.667 396.586 148.83L363.92 176.955L306.336 106.907C304.944 105.214 302.806 104.316 300.626 104.505C298.443 104.693 296.493 105.945 295.412 107.852L247.301 192.755V32.3008H447.699V199.611ZM362.221 89.7601C362.221 74.3099 374.79 61.7397 390.241 61.7397C405.691 61.7397 418.261 74.3103 418.261 89.7605C418.261 105.211 405.691 117.781 390.241 117.781C374.791 117.781 362.221 105.21 362.221 89.7601Z" fill="white"/>
</mask>
<g mask="url(#mask1)">
<rect x="234" y="19" width="227" height="227" fill="url(#paint1_linear)"/>
</g>
</g>
<mask id="mask2" mask-type="alpha" maskUnits="userSpaceOnUse" x="44" y="79" width="31" height="31">
<path fill-rule="evenodd" clip-rule="evenodd" d="M74.0918 79H44.9082C44.4066 79 44 79.4066 44 79.9082V106.173V109.092C44 109.593 44.4066 110 44.9082 110H74.0918C74.5934 110 75 109.593 75 109.092V106.173V79.9082C75 79.4066 74.5934 79 74.0918 79ZM73.1836 103.665L67.4936 96.837C67.3378 96.65 67.1134 96.5333 66.8709 96.5132C66.6282 96.4931 66.3878 96.5713 66.2033 96.7301L61.7424 100.571L53.8785 91.0049C53.6884 90.7738 53.3965 90.6511 53.0987 90.6768C52.8005 90.7026 52.5343 90.8735 52.3867 91.134L45.8164 102.729V80.8164H73.1836V103.665ZM61.5102 88.6633C61.5102 86.5533 63.2268 84.8367 65.3367 84.8367C67.4467 84.8367 69.1632 86.5534 69.1632 88.6633C69.1632 90.7733 67.4467 92.4899 65.3367 92.4899C63.2269 92.4899 61.5102 90.7732 61.5102 88.6633Z" fill="white"/>
</mask>
<g mask="url(#mask2)">
<rect x="44" y="79" width="31" height="31" fill="url(#paint2_linear)"/>
</g>
<rect x="202" y="4" width="20" height="20" rx="10" fill="#D8D8D8"/>
<mask id="mask3" mask-type="alpha" maskUnits="userSpaceOnUse" x="202" y="4" width="20" height="20">
<rect x="202" y="4" width="20" height="20" rx="10" fill="white"/>
</mask>
<g mask="url(#mask3)">
<rect x="200.5" y="1.5" width="24" height="24" fill="url(#paint3_linear)"/>
</g>
<rect x="60" y="151" width="20" height="20" rx="10" fill="#D8D8D8"/>
<mask id="mask4" mask-type="alpha" maskUnits="userSpaceOnUse" x="60" y="151" width="20" height="20">
<rect x="60" y="151" width="20" height="20" rx="10" fill="white"/>
</mask>
<g mask="url(#mask4)">
<rect x="58.5" y="148.5" width="24" height="24" fill="url(#paint4_linear)"/>
</g>
<rect x="60" y="151" width="20" height="20" rx="10" fill="#D8D8D8"/>
<mask id="mask5" mask-type="alpha" maskUnits="userSpaceOnUse" x="60" y="151" width="20" height="20">
<rect x="60" y="151" width="20" height="20" rx="10" fill="white"/>
</mask>
<g mask="url(#mask5)">
<rect x="58.5" y="148.5" width="24" height="24" fill="url(#paint5_linear)"/>
</g>
<rect x="490" y="243" width="10" height="10" rx="5" fill="#D8D8D8"/>
<mask id="mask6" mask-type="alpha" maskUnits="userSpaceOnUse" x="490" y="243" width="10" height="10">
<rect x="490" y="243" width="10" height="10" rx="5" fill="white"/>
</mask>
<g mask="url(#mask6)">
<rect x="489.25" y="241.75" width="12" height="12" fill="url(#paint6_linear)"/>
</g>
<mask id="mask7" mask-type="alpha" maskUnits="userSpaceOnUse" x="242" y="265" width="24" height="22">
<path d="M264.096 267.09C262.854 265.742 261.149 265 259.296 265C257.91 265 256.641 265.438 255.525 266.302C254.961 266.738 254.45 267.271 254 267.894C253.55 267.271 253.039 266.738 252.475 266.302C251.359 265.438 250.09 265 248.704 265C246.851 265 245.146 265.742 243.904 267.09C242.676 268.421 242 270.241 242 272.213C242 274.242 242.756 276.1 244.38 278.06C245.833 279.813 247.921 281.592 250.339 283.653C251.165 284.356 252.1 285.154 253.072 286.004C253.329 286.229 253.658 286.352 254 286.352C254.341 286.352 254.671 286.229 254.927 286.004C255.899 285.154 256.836 284.356 257.662 283.652C260.079 281.592 262.167 279.813 263.62 278.06C265.244 276.1 266 274.242 266 272.213C266 270.241 265.324 268.421 264.096 267.09Z" fill="white"/>
</mask>
<g mask="url(#mask7)">
<rect x="242" y="265" width="24" height="24" fill="url(#paint7_linear)"/>
</g>
<mask id="mask8" mask-type="alpha" maskUnits="userSpaceOnUse" x="420" y="265" width="24" height="24">
<path fill-rule="evenodd" clip-rule="evenodd" d="M420 276.4C420 270.445 425.383 265.6 432 265.6C438.617 265.6 444 270.445 444 276.4C444 282.355 438.617 287.2 432 287.2C430.295 287.2 428.648 286.884 427.103 286.26C424.381 287.832 420.618 288.373 420.456 288.396C420.437 288.399 420.418 288.4 420.4 288.4C420.25 288.4 420.11 288.316 420.042 288.178C419.965 288.025 419.996 287.839 420.117 287.717C421.037 286.798 421.671 284.856 421.907 282.242C420.658 280.498 420 278.482 420 276.4ZM424.8 276.4C424.8 277.282 425.518 278 426.4 278C427.282 278 428 277.282 428 276.4C428 275.518 427.282 274.8 426.4 274.8C425.518 274.8 424.8 275.518 424.8 276.4ZM432 278C431.118 278 430.4 277.282 430.4 276.4C430.4 275.518 431.118 274.8 432 274.8C432.882 274.8 433.6 275.518 433.6 276.4C433.6 277.282 432.882 278 432 278ZM436 276.4C436 277.282 436.718 278 437.6 278C438.482 278 439.2 277.282 439.2 276.4C439.2 275.518 438.482 274.8 437.6 274.8C436.718 274.8 436 275.518 436 276.4Z" fill="white"/>
</mask>
<g mask="url(#mask8)">
<rect x="420" y="265" width="24" height="24" fill="url(#paint8_linear)"/>
</g>
<defs>
<filter id="filter0_d" x="0" y="17" width="211" height="148" filterUnits="userSpaceOnUse" color-interpolation-filters="sRGB">
<feFlood flood-opacity="0" result="BackgroundImageFix"/>
<feColorMatrix in="SourceAlpha" type="matrix" values="0 0 0 0 0 0 0 0 0 0 0 0 0 0 0 0 0 0 127 0" result="hardAlpha"/>
<feOffset dy="12"/>
<feGaussianBlur stdDeviation="12"/>
<feColorMatrix type="matrix" values="0 0 0 0 0.867527 0 0 0 0 0.867527 0 0 0 0 0.867527 0 0 0 0.01 0"/>
<feBlend mode="normal" in2="BackgroundImageFix" result="effect1_dropShadow"/>
<feBlend mode="normal" in="SourceGraphic" in2="effect1_dropShadow" result="shape"/>
</filter>
<filter id="filter1_d" x="0" y="185" width="211" height="148" filterUnits="userSpaceOnUse" color-interpolation-filters="sRGB">
<feFlood flood-opacity="0" result="BackgroundImageFix"/>
<feColorMatrix in="SourceAlpha" type="matrix" values="0 0 0 0 0 0 0 0 0 0 0 0 0 0 0 0 0 0 127 0" result="hardAlpha"/>
<feOffset dy="12"/>
<feGaussianBlur stdDeviation="12"/>
<feColorMatrix type="matrix" values="0 0 0 0 0.867527 0 0 0 0 0.867527 0 0 0 0 0.867527 0 0 0 0.01 0"/>
<feBlend mode="normal" in2="BackgroundImageFix" result="effect1_dropShadow"/>
<feBlend mode="normal" in="SourceGraphic" in2="effect1_dropShadow" result="shape"/>
</filter>
<filter id="filter2_d" x="190" y="-12" width="313" height="361" filterUnits="userSpaceOnUse" color-interpolation-filters="sRGB">
<feFlood flood-opacity="0" result="BackgroundImageFix"/>
<feColorMatrix in="SourceAlpha" type="matrix" values="0 0 0 0 0 0 0 0 0 0 0 0 0 0 0 0 0 0 127 0" result="hardAlpha"/>
<feOffset dy="12"/>
<feGaussianBlur stdDeviation="12"/>
<feColorMatrix type="matrix" values="0 0 0 0 0.867527 0 0 0 0 0.867527 0 0 0 0 0.867527 0 0 0 0.01 0"/>
<feBlend mode="normal" in2="BackgroundImageFix" result="effect1_dropShadow"/>
<feBlend mode="normal" in="SourceGraphic" in2="effect1_dropShadow" result="shape"/>
</filter>
<linearGradient id="paint0_linear" x1="160" y1="253" x2="160" y2="222" gradientUnits="userSpaceOnUse">
<stop stop-color="#6F86D6"/>
<stop offset="1" stop-color="#48C6EF"/>
</linearGradient>
<linearGradient id="paint1_linear" x1="461" y1="246" x2="461" y2="19" gradientUnits="userSpaceOnUse">
<stop stop-color="#6F86D6"/>
<stop offset="1" stop-color="#48C6EF"/>
</linearGradient>
<linearGradient id="paint2_linear" x1="75" y1="110" x2="75" y2="79" gradientUnits="userSpaceOnUse">
<stop stop-color="#6F86D6"/>
<stop offset="1" stop-color="#48C6EF"/>
</linearGradient>
<linearGradient id="paint3_linear" x1="224.5" y1="25.5" x2="224.5" y2="1.5" gradientUnits="userSpaceOnUse">
<stop stop-color="#6F86D6"/>
<stop offset="1" stop-color="#48C6EF"/>
</linearGradient>
<linearGradient id="paint4_linear" x1="82.5" y1="172.5" x2="82.5" y2="148.5" gradientUnits="userSpaceOnUse">
<stop stop-color="#6F86D6"/>
<stop offset="1" stop-color="#48C6EF"/>
</linearGradient>
<linearGradient id="paint5_linear" x1="82.5" y1="172.5" x2="82.5" y2="148.5" gradientUnits="userSpaceOnUse">
<stop stop-color="#6F86D6"/>
<stop offset="1" stop-color="#48C6EF"/>
</linearGradient>
<linearGradient id="paint6_linear" x1="501.25" y1="253.75" x2="501.25" y2="241.75" gradientUnits="userSpaceOnUse">
<stop stop-color="#6F86D6"/>
<stop offset="1" stop-color="#48C6EF"/>
</linearGradient>
<linearGradient id="paint7_linear" x1="266" y1="289" x2="266" y2="265" gradientUnits="userSpaceOnUse">
<stop stop-color="#6F86D6"/>
<stop offset="1" stop-color="#48C6EF"/>
</linearGradient>
<linearGradient id="paint8_linear" x1="444" y1="289" x2="444" y2="265" gradientUnits="userSpaceOnUse">
<stop stop-color="#6F86D6"/>
<stop offset="1" stop-color="#48C6EF"/>
</linearGradient>
</defs>
</svg>
