<svg width="80" height="80" viewBox="0 0 80 80" fill="none" xmlns="http://www.w3.org/2000/svg">
<rect width="80" height="80" rx="40" fill="#D8D8D8"/>
<mask id="mask0" mask-type="alpha" maskUnits="userSpaceOnUse" x="0" y="0" width="80" height="80">
<rect width="80" height="80" rx="40" fill="white"/>
</mask>
<g mask="url(#mask0)">
<rect x="-6" y="-10" width="96" height="96" fill="url(#paint0_linear)"/>
<mask id="mask1" mask-type="alpha" maskUnits="userSpaceOnUse" x="19" y="15" width="45" height="47">
<path fill-rule="evenodd" clip-rule="evenodd" d="M50.8989 15.5506C50.9439 15.5755 50.9778 15.5995 51.0169 15.6295C51.1999 15.7627 51.358 15.9276 51.4477 16.1497L63.5987 46.2244C63.6884 46.4465 63.6892 46.6749 63.6501 46.8979C63.6406 46.9475 63.6329 46.9883 63.62 47.0366C63.5592 47.2522 63.4519 47.4463 63.2861 47.6021C63.2831 47.6046 63.2814 47.6087 63.2796 47.6127C63.2779 47.6168 63.2762 47.6209 63.2732 47.6234C63.1614 47.7197 63.0412 47.7952 62.9093 47.8485C62.7404 47.9167 62.5672 47.9409 62.3963 47.9374C62.3728 47.9361 62.3498 47.9295 62.3264 47.9228C62.3086 47.9177 62.2906 47.9125 62.272 47.9095C62.1413 47.8924 62.0128 47.8609 61.8954 47.8033C61.8865 47.7986 61.8774 47.7968 61.8687 47.7951C61.8606 47.7935 61.8529 47.792 61.8462 47.7882C56.4702 44.8661 50.2584 43.9716 44.3164 45.1236L38.3428 30.3384C43.4174 27.0395 47.2635 22.0787 49.1008 16.2421C49.1035 16.2356 49.1081 16.2304 49.1128 16.2252C49.1174 16.22 49.122 16.2147 49.1248 16.2082C49.1996 16.0004 49.3259 15.8202 49.4987 15.675C49.5228 15.6551 49.5479 15.6401 49.5732 15.625C49.5881 15.6161 49.6031 15.6072 49.6179 15.5972C49.6407 15.5819 49.6622 15.5654 49.6834 15.5489C49.7274 15.5151 49.7707 15.4817 49.8237 15.4603C49.9268 15.4186 50.0319 15.4083 50.1359 15.398C50.1485 15.3968 50.1611 15.3955 50.1737 15.3942C50.1867 15.393 50.1972 15.3874 50.2077 15.3818C50.2182 15.3762 50.2288 15.3706 50.2417 15.3694C50.2457 15.3692 50.2497 15.3709 50.2538 15.3726C50.2578 15.3744 50.2619 15.3761 50.2658 15.3758C50.4933 15.3727 50.7062 15.4401 50.8989 15.5506ZM36.164 31.6063L41.8674 45.7229C41.7171 45.7679 41.5656 45.8093 41.4141 45.8508C41.1521 45.9225 40.8899 45.9942 40.633 46.0844L37.5607 47.3257L44.5804 53.5235C45.3806 54.1985 45.6595 55.3749 45.2362 56.3721L43.571 60.25C43.3275 60.8596 42.839 61.3423 42.2213 61.5918C42.0686 61.6535 41.9071 61.7 41.739 61.7302C40.8935 61.8888 40.0395 61.6068 39.4549 60.9792L29.7968 50.4625L29.0959 50.7457C28.4573 51.0037 27.7298 50.6948 27.4718 50.0563L27.0044 48.8996L23.5343 50.3016C22.8958 50.5596 22.1682 50.2508 21.9102 49.6123L19.1061 42.6719C18.8482 42.0334 19.157 41.3058 19.7955 41.0479L23.2657 39.6458L22.7983 38.4891C22.5404 37.8506 22.8492 37.123 23.4877 36.865L35.0133 32.2084C35.2632 32.0938 35.5033 31.9627 35.7435 31.8316C35.883 31.7554 36.0225 31.6792 36.164 31.6063Z" fill="white"/>
</mask>
<g mask="url(#mask1)">
<rect x="13.9642" y="29.9485" width="40" height="40" transform="rotate(-22 13.9642 29.9485)" fill="white"/>
</g>
</g>
<defs>
<linearGradient id="paint0_linear" x1="90" y1="86" x2="90" y2="-10" gradientUnits="userSpaceOnUse">
<stop stop-color="#6F86D6"/>
<stop offset="1" stop-color="#48C6EF"/>
</linearGradient>
</defs>
</svg>
