<svg width="80" height="80" viewBox="0 0 80 80" fill="none" xmlns="http://www.w3.org/2000/svg">
<rect width="80" height="80" rx="40" fill="#D8D8D8"/>
<mask id="mask0" mask-type="alpha" maskUnits="userSpaceOnUse" x="0" y="0" width="80" height="80">
<rect width="80" height="80" rx="40" fill="white"/>
</mask>
<g mask="url(#mask0)">
<rect x="-6" y="-10" width="96" height="96" fill="url(#paint0_linear)"/>
<mask id="mask1" mask-type="alpha" maskUnits="userSpaceOnUse" x="20" y="21" width="39" height="39">
<path fill-rule="evenodd" clip-rule="evenodd" d="M39.5 21C28.7316 21 20 29.7316 20 40.5C20 51.2684 28.7316 60 39.5 60C41.2984 60 42.75 58.5484 42.75 56.75C42.75 55.905 42.4359 55.1466 41.905 54.5725C41.3959 53.9984 41.0925 53.2509 41.0925 52.4166C41.0925 50.6183 42.5441 49.1666 44.3425 49.1666H48.1666C54.1466 49.1666 59 44.3133 59 38.3333C59 28.7566 50.2684 21 39.5 21ZM27.5834 40.5C25.785 40.5 24.3334 39.0484 24.3334 37.25C24.3334 35.4516 25.785 34 27.5834 34C29.3818 34 30.8334 35.4516 30.8334 37.25C30.8334 39.0484 29.3817 40.5 27.5834 40.5ZM30.8334 28.5834C30.8334 30.3817 32.285 31.8334 34.0834 31.8334C35.8817 31.8334 37.3334 30.3817 37.3334 28.5834C37.3334 26.785 35.8818 25.3334 34.0834 25.3334C32.285 25.3334 30.8334 26.785 30.8334 28.5834ZM44.9166 31.8334C43.1182 31.8334 41.6666 30.3817 41.6666 28.5834C41.6666 26.785 43.1182 25.3334 44.9166 25.3334C46.715 25.3334 48.1666 26.785 48.1666 28.5834C48.1666 30.3817 46.715 31.8334 44.9166 31.8334ZM48.1666 37.25C48.1666 39.0484 49.6182 40.5 51.4166 40.5C53.215 40.5 54.6666 39.0484 54.6666 37.25C54.6666 35.4516 53.215 34 51.4166 34C49.6182 34 48.1666 35.4516 48.1666 37.25Z" fill="white"/>
</mask>
<g mask="url(#mask1)">
<rect x="20" y="21" width="39" height="39" fill="white"/>
</g>
</g>
<defs>
<linearGradient id="paint0_linear" x1="90" y1="86" x2="90" y2="-10" gradientUnits="userSpaceOnUse">
<stop stop-color="#6F86D6"/>
<stop offset="1" stop-color="#48C6EF"/>
</linearGradient>
</defs>
</svg>
