<svg width="80" height="80" viewBox="0 0 80 80" fill="none" xmlns="http://www.w3.org/2000/svg">
<rect width="80" height="80" rx="40" fill="#D8D8D8"/>
<mask id="mask0" mask-type="alpha" maskUnits="userSpaceOnUse" x="0" y="0" width="80" height="80">
<rect width="80" height="80" rx="40" fill="white"/>
</mask>
<g mask="url(#mask0)">
<rect x="-6" y="-10" width="96" height="96" fill="url(#paint0_linear)"/>
<mask id="mask1" mask-type="alpha" maskUnits="userSpaceOnUse" x="20" y="26" width="40" height="26">
<path fill-rule="evenodd" clip-rule="evenodd" d="M26.7876 31.1321L33.4534 37.7979C34.9664 36.5875 36.8041 35.8009 38.8281 35.5731V26.1391C34.2187 26.4091 30.0335 28.2446 26.7876 31.1321ZM25.1305 32.7892C21.9987 36.3097 20 40.93 20 46.0016C20 46.6493 20.5241 47.1734 21.1719 47.1734H28.2812C28.929 47.1734 29.4531 46.6493 29.4531 46.0016C29.4531 43.5162 30.3529 41.2595 31.7963 39.455L25.1305 32.7892ZM47.6515 36.732C48.0875 36.4493 48.6597 36.4939 49.0545 36.8384C49.4459 37.1817 49.5638 37.7424 49.3441 38.2139L44.2503 49.1499C43.4859 50.7966 41.8173 51.8609 40 51.8609C37.4148 51.8609 35.3125 49.7587 35.3125 47.1734C35.3125 45.5644 36.1227 44.087 37.4812 43.2195L47.6515 36.732ZM54.8694 32.7892L51.4251 36.2336C51.8588 37.1595 51.9159 38.2433 51.4681 39.2038L49.9272 42.512C50.3239 43.6017 50.5469 44.7731 50.5469 46.0016C50.5469 46.6493 51.071 47.1734 51.7187 47.1734H58.8281C59.4759 47.1734 60 46.6493 60 46.0016C60 40.93 58.0012 36.3097 54.8694 32.7892ZM41.1719 35.5731V26.1391C45.7812 26.4091 49.9664 28.2446 53.2123 31.1321L49.767 34.5775C48.5377 33.9952 47.3574 34.1295 46.3916 34.7554L43.9807 36.2934C43.0986 35.9325 42.1585 35.6841 41.1719 35.5731Z" fill="white"/>
</mask>
<g mask="url(#mask1)">
<rect x="20" y="19" width="40" height="40" fill="white"/>
</g>
</g>
<defs>
<linearGradient id="paint0_linear" x1="90" y1="86" x2="90" y2="-10" gradientUnits="userSpaceOnUse">
<stop stop-color="#6F86D6"/>
<stop offset="1" stop-color="#48C6EF"/>
</linearGradient>
</defs>
</svg>
