<svg width="80" height="80" viewBox="0 0 80 80" fill="none" xmlns="http://www.w3.org/2000/svg">
<rect width="80" height="80" rx="40" fill="#D8D8D8"/>
<mask id="mask0" mask-type="alpha" maskUnits="userSpaceOnUse" x="0" y="0" width="80" height="80">
<rect width="80" height="80" rx="40" fill="white"/>
</mask>
<g mask="url(#mask0)">
<rect x="-6" y="-10" width="96" height="96" fill="url(#paint0_linear)"/>
<mask id="mask1" mask-type="alpha" maskUnits="userSpaceOnUse" x="22" y="23" width="40" height="34">
<path fill-rule="evenodd" clip-rule="evenodd" d="M45.7832 23.4708H38.1386C37.3568 23.4708 36.7229 24.1046 36.7229 24.8865V55.0732C36.7229 55.855 37.3568 56.4889 38.1386 56.4889H45.7832C46.565 56.4889 47.1989 55.855 47.1989 55.0732V24.8865C47.1989 24.1045 46.565 23.4708 45.7832 23.4708ZM60.5533 41.0723H52.9087C52.1269 41.0723 51.4931 41.7061 51.4931 42.4879V55.0827C51.4931 55.8645 52.1269 56.4984 52.9087 56.4984H60.5533C61.3352 56.4984 61.969 55.8645 61.969 55.0827V42.4879C61.969 41.706 61.3352 41.0723 60.5533 41.0723ZM23.4157 34.749H31.0603C31.8421 34.749 32.4759 35.3828 32.4759 36.1646V55.0638C32.4759 55.8456 31.8421 56.4795 31.0603 56.4795H23.4157C22.6338 56.4795 22 55.8456 22 55.0638V36.1646C22 35.3828 22.6338 34.749 23.4157 34.749Z" fill="white"/>
</mask>
<g mask="url(#mask1)">
<rect x="22" y="20" width="40" height="40" fill="white"/>
</g>
</g>
<defs>
<linearGradient id="paint0_linear" x1="90" y1="86" x2="90" y2="-10" gradientUnits="userSpaceOnUse">
<stop stop-color="#6F86D6"/>
<stop offset="1" stop-color="#48C6EF"/>
</linearGradient>
</defs>
</svg>
