<svg width="80" height="80" viewBox="0 0 80 80" fill="none" xmlns="http://www.w3.org/2000/svg">
<rect width="80" height="80" rx="40" fill="#D8D8D8"/>
<mask id="mask0" mask-type="alpha" maskUnits="userSpaceOnUse" x="0" y="0" width="80" height="80">
<rect width="80" height="80" rx="40" fill="white"/>
</mask>
<g mask="url(#mask0)">
<rect x="-6" y="-10" width="96" height="96" fill="url(#paint0_linear)"/>
<mask id="mask1" mask-type="alpha" maskUnits="userSpaceOnUse" x="20" y="22" width="40" height="36">
<path fill-rule="evenodd" clip-rule="evenodd" d="M56.3281 38.8281H41.0937V23.5938C41.0937 22.9469 40.5687 22.4219 39.9218 22.4219C32.7335 22.4219 26.3351 26.7633 23.6492 33.3398L40.2921 38.8883C41.0109 39.1273 41.3179 39.9773 40.9156 40.6211L31.6179 55.4969C34.1617 56.8617 37.0085 57.5781 39.9218 57.5781C49.6367 57.5781 57.4999 49.7164 57.4999 40C57.4999 39.3531 56.9749 38.8281 56.3281 38.8281ZM58.8281 34.1406H57.5V25.9375C57.5 25.2903 56.9753 24.7656 56.3281 24.7656C55.6809 24.7656 55.1562 25.2903 55.1562 25.9375V34.1406H52.8125V28.2812C52.8125 27.6341 52.2878 27.1094 51.6406 27.1094C50.9934 27.1094 50.4688 27.6341 50.4688 28.2812V34.1406H48.125V30.625C48.125 29.9778 47.6003 29.4531 46.9531 29.4531C46.3059 29.4531 45.7812 29.9778 45.7812 30.625V34.1406H44.6094C43.9622 34.1406 43.4375 34.6653 43.4375 35.3125C43.4375 35.9597 43.9622 36.4844 44.6094 36.4844H58.8281C59.4753 36.4844 60 35.9597 60 35.3125C60 34.6653 59.4753 34.1406 58.8281 34.1406ZM20.3791 36.1121C20.5158 35.4209 21.2287 35.0041 21.9007 35.2281L38.1391 40.6414L29.068 55.1545C28.6955 55.7507 27.8815 55.8889 27.332 55.4404C22.8148 51.753 20 46.1624 20 40C20 38.6866 20.127 37.3863 20.3791 36.1121Z" fill="white"/>
</mask>
<g mask="url(#mask1)">
<rect x="20" y="20" width="40" height="40" fill="white"/>
</g>
</g>
<defs>
<linearGradient id="paint0_linear" x1="90" y1="86" x2="90" y2="-10" gradientUnits="userSpaceOnUse">
<stop stop-color="#6F86D6"/>
<stop offset="1" stop-color="#48C6EF"/>
</linearGradient>
</defs>
</svg>
