<svg width="80" height="80" viewBox="0 0 80 80" fill="none" xmlns="http://www.w3.org/2000/svg">
<rect width="80" height="80" rx="40" fill="#D8D8D8"/>
<mask id="mask0" mask-type="alpha" maskUnits="userSpaceOnUse" x="0" y="0" width="80" height="80">
<rect width="80" height="80" rx="40" fill="white"/>
</mask>
<g mask="url(#mask0)">
<rect x="-6" y="-10" width="96" height="96" fill="url(#paint0_linear)"/>
<mask id="mask1" mask-type="alpha" maskUnits="userSpaceOnUse" x="20" y="21" width="40" height="40">
<path fill-rule="evenodd" clip-rule="evenodd" d="M36.9808 46.8097C36.383 46.4506 35.8185 46.0163 35.3023 45.5057L35.2685 45.4719C33.5996 43.8036 32.6814 41.5856 32.6814 39.2204C32.6814 36.8395 33.6122 34.6073 35.3024 32.9352L44.7561 23.5822C48.2362 20.1393 53.8988 20.1393 57.379 23.5822L57.413 23.6161C59.0816 25.2844 60 27.5025 60 29.8675C60 32.2485 59.0692 34.4806 57.379 36.1527L49.6131 43.8357C49.6455 43.4868 49.6624 43.1346 49.6624 42.7797C49.6624 41.163 49.3217 39.5994 48.6755 38.1702L54.0819 32.8214C54.8726 32.0392 55.3096 30.9942 55.3126 29.8786C55.3155 28.7629 54.8841 27.7155 54.0942 26.9257L54.082 26.9136C52.4481 25.2971 49.6873 25.2971 48.0533 26.9136L38.5994 36.2664C37.8088 37.0486 37.3717 38.0938 37.3687 39.2093C37.3658 40.325 37.7972 41.3723 38.5833 42.1583L38.5994 42.1743C39.072 42.6421 39.6394 42.9736 40.2462 43.1706C40.174 43.5098 40.0074 43.8155 39.7522 44.068L36.9808 46.8097ZM47.2516 41.6791C47.3307 42.3247 47.3396 42.979 47.2787 43.6266L47.2739 43.6791C47.0698 45.7188 46.1733 47.6053 44.6978 49.065L35.244 58.4179C31.7638 61.8608 26.1012 61.8608 22.621 58.4179L22.5871 58.384C20.9182 56.7157 20 54.4977 20 52.1326C20 49.7517 20.9309 47.5195 22.621 45.8473L30.387 38.1643C30.3545 38.5132 30.3376 38.8654 30.3376 39.2204C30.3375 40.8372 30.6782 42.4008 31.3245 43.83L25.918 49.1787C25.1274 49.9609 24.6904 51.0059 24.6873 52.1215C24.6845 53.2372 25.1159 54.2846 25.902 55.0706L25.918 55.0865C27.552 56.7031 30.3129 56.7031 31.9469 55.0865L41.4006 45.7337C42.1912 44.9514 42.6284 43.9063 42.6313 42.7907C42.6342 41.675 42.2028 40.6277 41.4166 39.8417L41.4006 39.8257C40.928 39.358 40.3607 39.0266 39.7539 38.8295C39.8261 38.4903 39.9927 38.1847 40.2479 37.9321L43.0192 35.1904C43.6171 35.5495 44.1816 35.9838 44.6977 36.4944L44.7316 36.5282C45.5079 37.3043 46.1215 38.1993 46.5561 39.1726C46.5952 39.2602 46.6327 39.3486 46.6689 39.4374C46.9595 40.1507 47.1561 40.9029 47.2516 41.6791Z" fill="white"/>
</mask>
<g mask="url(#mask1)">
<rect x="20" y="21" width="40" height="40" fill="white"/>
</g>
</g>
<defs>
<linearGradient id="paint0_linear" x1="90" y1="86" x2="90" y2="-10" gradientUnits="userSpaceOnUse">
<stop stop-color="#6F86D6"/>
<stop offset="1" stop-color="#48C6EF"/>
</linearGradient>
</defs>
</svg>
